<?xml version="1.0" encoding="UTF-8"?>
<!DOCTYPE svg PUBLIC "-//W3C//DTD SVG 1.1//EN" "http://www.w3.org/Graphics/SVG/1.1/DTD/svg11.dtd">
<svg version="1.2" width="210mm" height="297mm" viewBox="0 0 21000 29700" preserveAspectRatio="xMidYMid" fill-rule="evenodd" stroke-width="28.222" stroke-linejoin="round" xmlns="http://www.w3.org/2000/svg" xmlns:ooo="http://xml.openoffice.org/svg/export" xmlns:xlink="http://www.w3.org/1999/xlink" xmlns:presentation="http://sun.com/xmlns/staroffice/presentation" xmlns:smil="http://www.w3.org/2001/SMIL20/" xmlns:anim="urn:oasis:names:tc:opendocument:xmlns:animation:1.0" xml:space="preserve">
 <defs class="ClipPathGroup">
  <clipPath id="presentation_clip_path" clipPathUnits="userSpaceOnUse">
   <rect x="0" y="0" width="21000" height="29700"/>
  </clipPath>
 </defs>
 <defs class="TextShapeIndex">
  <g ooo:slide="id1" ooo:id-list="id3 id4 id5 id6 id7 id8 id9 id10 id11 id12 id13 id14 id15 id16 id17 id18 id19 id20 id21 id22 id23 id24 id25"/>
 </defs>
 <defs class="EmbeddedBulletChars">
  <g id="bullet-char-template(57356)" transform="scale(0.00048828125,-0.00048828125)">
   <path d="M 580,1141 L 1163,571 580,0 -4,571 580,1141 Z"/>
  </g>
  <g id="bullet-char-template(57354)" transform="scale(0.00048828125,-0.00048828125)">
   <path d="M 8,1128 L 1137,1128 1137,0 8,0 8,1128 Z"/>
  </g>
  <g id="bullet-char-template(10146)" transform="scale(0.00048828125,-0.00048828125)">
   <path d="M 174,0 L 602,739 174,1481 1456,739 174,0 Z M 1358,739 L 309,1346 659,739 1358,739 Z"/>
  </g>
  <g id="bullet-char-template(10132)" transform="scale(0.00048828125,-0.00048828125)">
   <path d="M 2015,739 L 1276,0 717,0 1260,543 174,543 174,936 1260,936 717,1481 1274,1481 2015,739 Z"/>
  </g>
  <g id="bullet-char-template(10007)" transform="scale(0.00048828125,-0.00048828125)">
   <path d="M 0,-2 C -7,14 -16,27 -25,37 L 356,567 C 262,823 215,952 215,954 215,979 228,992 255,992 264,992 276,990 289,987 310,991 331,999 354,1012 L 381,999 492,748 772,1049 836,1024 860,1049 C 881,1039 901,1025 922,1006 886,937 835,863 770,784 769,783 710,716 594,584 L 774,223 C 774,196 753,168 711,139 L 727,119 C 717,90 699,76 672,76 641,76 570,178 457,381 L 164,-76 C 142,-110 111,-127 72,-127 30,-127 9,-110 8,-76 1,-67 -2,-52 -2,-32 -2,-23 -1,-13 0,-2 Z"/>
  </g>
  <g id="bullet-char-template(10004)" transform="scale(0.00048828125,-0.00048828125)">
   <path d="M 285,-33 C 182,-33 111,30 74,156 52,228 41,333 41,471 41,549 55,616 82,672 116,743 169,778 240,778 293,778 328,747 346,684 L 369,508 C 377,444 397,411 428,410 L 1163,1116 C 1174,1127 1196,1133 1229,1133 1271,1133 1292,1118 1292,1087 L 1292,965 C 1292,929 1282,901 1262,881 L 442,47 C 390,-6 338,-33 285,-33 Z"/>
  </g>
  <g id="bullet-char-template(9679)" transform="scale(0.00048828125,-0.00048828125)">
   <path d="M 813,0 C 632,0 489,54 383,161 276,268 223,411 223,592 223,773 276,916 383,1023 489,1130 632,1184 813,1184 992,1184 1136,1130 1245,1023 1353,916 1407,772 1407,592 1407,412 1353,268 1245,161 1136,54 992,0 813,0 Z"/>
  </g>
  <g id="bullet-char-template(8226)" transform="scale(0.00048828125,-0.00048828125)">
   <path d="M 346,457 C 273,457 209,483 155,535 101,586 74,649 74,723 74,796 101,859 155,911 209,963 273,989 346,989 419,989 480,963 531,910 582,859 608,796 608,723 608,648 583,586 532,535 482,483 420,457 346,457 Z"/>
  </g>
  <g id="bullet-char-template(8211)" transform="scale(0.00048828125,-0.00048828125)">
   <path d="M -4,459 L 1135,459 1135,606 -4,606 -4,459 Z"/>
  </g>
 </defs>
 <defs class="TextEmbeddedBitmaps"/>
 <g>
  <g id="id2" class="Master_Slide">
   <g id="bg-id2" class="Background"/>
   <g id="bo-id2" class="BackgroundObjects"/>
  </g>
 </g>
 <g class="SlideGroup">
  <g>
   <g id="id1" class="Slide" clip-path="url(#presentation_clip_path)">
    <g class="Page">
     <g class="com.sun.star.drawing.CustomShape">
      <g id="id3">
       <rect class="BoundingBox" stroke="none" fill="none" x="699" y="4099" width="19804" height="19004"/>
       <path fill="rgb(6,0,80)" stroke="none" d="M 10600,4100 C 16213,4100 20500,8214 20500,13600 20500,18986 16213,23100 10600,23100 4987,23100 700,18986 700,13600 700,8214 4987,4100 10600,4100 Z M 700,4100 L 700,4100 Z M 20501,23101 L 20501,23101 Z"/>
       <path fill="none" stroke="rgb(6,0,80)" d="M 10600,4100 C 16213,4100 20500,8214 20500,13600 20500,18986 16213,23100 10600,23100 4987,23100 700,18986 700,13600 700,8214 4987,4100 10600,4100 Z"/>
       <path fill="none" stroke="rgb(6,0,80)" d="M 700,4100 L 700,4100 Z"/>
       <path fill="none" stroke="rgb(6,0,80)" d="M 20501,23101 L 20501,23101 Z"/>
      </g>
     </g>
     <g class="com.sun.star.drawing.CustomShape">
      <g id="id4">
       <rect class="BoundingBox" stroke="none" fill="none" x="2999" y="11399" width="2304" height="2204"/>
       <path fill="rgb(255,255,255)" stroke="none" d="M 4150,11400 L 3881,12241 3000,12241 3716,12765 3447,13601 4150,13089 4853,13601 4584,12765 5301,12241 4419,12241 4150,11400 4150,11400 Z M 3000,11400 L 3000,11400 Z M 5301,13601 L 5301,13601 Z"/>
       <path fill="none" stroke="rgb(255,255,255)" d="M 4150,11400 L 3881,12241 3000,12241 3716,12765 3447,13601 4150,13089 4853,13601 4584,12765 5301,12241 4419,12241 4150,11400 4150,11400 Z"/>
       <path fill="none" stroke="rgb(255,255,255)" d="M 3000,11400 L 3000,11400 Z"/>
       <path fill="none" stroke="rgb(255,255,255)" d="M 5301,13601 L 5301,13601 Z"/>
      </g>
     </g>
     <g class="com.sun.star.drawing.CustomShape">
      <g id="id5">
       <rect class="BoundingBox" stroke="none" fill="none" x="6134" y="7447" width="1904" height="1704"/>
       <path fill="rgb(255,255,255)" stroke="none" d="M 7085,7448 L 6863,8098 6135,8098 6726,8503 6504,9149 7085,8753 7666,9149 7444,8503 8036,8098 7307,8098 7085,7448 7085,7448 Z M 6135,7448 L 6135,7448 Z M 8036,9149 L 8036,9149 Z"/>
       <path fill="none" stroke="rgb(255,255,255)" d="M 7085,7448 L 6863,8098 6135,8098 6726,8503 6504,9149 7085,8753 7666,9149 7444,8503 8036,8098 7307,8098 7085,7448 7085,7448 Z"/>
       <path fill="none" stroke="rgb(255,255,255)" d="M 6135,7448 L 6135,7448 Z"/>
       <path fill="none" stroke="rgb(255,255,255)" d="M 8036,9149 L 8036,9149 Z"/>
      </g>
     </g>
     <g class="com.sun.star.drawing.LineShape">
      <g id="id6">
       <rect class="BoundingBox" stroke="none" fill="none" x="4050" y="12350" width="2401" height="1601"/>
       <path fill="none" stroke="rgb(255,255,255)" stroke-width="500" stroke-linejoin="round" d="M 4300,12600 L 6200,13700"/>
      </g>
     </g>
     <g class="com.sun.star.drawing.LineShape">
      <g id="id7">
       <rect class="BoundingBox" stroke="none" fill="none" x="5750" y="13250" width="2901" height="3401"/>
       <path fill="none" stroke="rgb(255,255,255)" stroke-width="500" stroke-linejoin="round" d="M 6000,13500 L 8400,16400"/>
      </g>
     </g>
     <g class="com.sun.star.drawing.LineShape">
      <g id="id8">
       <rect class="BoundingBox" stroke="none" fill="none" x="7650" y="15950" width="801" height="3001"/>
       <path fill="none" stroke="rgb(255,255,255)" stroke-width="500" stroke-linejoin="round" d="M 8200,16200 L 7900,18700"/>
      </g>
     </g>
     <g class="com.sun.star.drawing.LineShape">
      <g id="id9">
       <rect class="BoundingBox" stroke="none" fill="none" x="7550" y="18150" width="4801" height="2701"/>
       <path fill="none" stroke="rgb(255,255,255)" stroke-width="500" stroke-linejoin="round" d="M 7800,18400 L 12100,20600"/>
      </g>
     </g>
     <g class="com.sun.star.drawing.LineShape">
      <g id="id10">
       <rect class="BoundingBox" stroke="none" fill="none" x="8050" y="15950" width="3701" height="1801"/>
       <path fill="none" stroke="rgb(255,255,255)" stroke-width="500" stroke-linejoin="round" d="M 8300,16200 L 11500,17500"/>
      </g>
     </g>
     <g class="com.sun.star.drawing.LineShape">
      <g id="id11">
       <rect class="BoundingBox" stroke="none" fill="none" x="11050" y="17150" width="3101" height="2701"/>
       <path fill="none" stroke="rgb(255,255,255)" stroke-width="500" stroke-linejoin="round" d="M 11300,17400 L 13900,19600"/>
      </g>
     </g>
     <g class="com.sun.star.drawing.LineShape">
      <g id="id12">
       <rect class="BoundingBox" stroke="none" fill="none" x="4250" y="13450" width="1901" height="2301"/>
       <path fill="none" stroke="rgb(255,255,255)" stroke-width="500" stroke-linejoin="round" d="M 5900,13700 L 4500,15500"/>
      </g>
     </g>
     <g class="com.sun.star.drawing.LineShape">
      <g id="id13">
       <rect class="BoundingBox" stroke="none" fill="none" x="5550" y="11750" width="2701" height="1901"/>
       <path fill="none" stroke="rgb(255,255,255)" stroke-width="500" stroke-linejoin="round" d="M 5800,13400 L 8000,12000"/>
      </g>
     </g>
     <g class="com.sun.star.drawing.LineShape">
      <g id="id14">
       <rect class="BoundingBox" stroke="none" fill="none" x="7650" y="9250" width="2901" height="3001"/>
       <path fill="none" stroke="rgb(255,255,255)" stroke-width="500" stroke-linejoin="round" d="M 7900,12000 L 10300,9500"/>
      </g>
     </g>
     <g class="com.sun.star.drawing.LineShape">
      <g id="id15">
       <rect class="BoundingBox" stroke="none" fill="none" x="7150" y="8250" width="3501" height="1501"/>
       <path fill="none" stroke="rgb(255,255,255)" stroke-width="500" stroke-linejoin="round" d="M 7400,8500 L 10400,9500"/>
      </g>
     </g>
     <g class="com.sun.star.drawing.LineShape">
      <g id="id16">
       <rect class="BoundingBox" stroke="none" fill="none" x="10050" y="6250" width="4201" height="3501"/>
       <path fill="none" stroke="rgb(255,255,255)" stroke-width="500" stroke-linejoin="round" d="M 10300,9500 L 14000,6500"/>
      </g>
     </g>
     <g class="com.sun.star.drawing.LineShape">
      <g id="id17">
       <rect class="BoundingBox" stroke="none" fill="none" x="10050" y="9350" width="5701" height="5201"/>
       <path fill="none" stroke="rgb(255,255,255)" stroke-width="500" stroke-linejoin="round" d="M 10300,9600 L 15500,14300"/>
      </g>
     </g>
     <g class="com.sun.star.drawing.LineShape">
      <g id="id18">
       <rect class="BoundingBox" stroke="none" fill="none" x="14950" y="13950" width="1201" height="3501"/>
       <path fill="none" stroke="rgb(255,255,255)" stroke-width="500" stroke-linejoin="round" d="M 15200,14200 L 15900,17200"/>
      </g>
     </g>
     <g class="com.sun.star.drawing.LineShape">
      <g id="id19">
       <rect class="BoundingBox" stroke="none" fill="none" x="15050" y="13850" width="3501" height="1601"/>
       <path fill="none" stroke="rgb(255,255,255)" stroke-width="500" stroke-linejoin="round" d="M 15300,14100 L 18300,15200"/>
      </g>
     </g>
     <g class="com.sun.star.drawing.CustomShape">
      <g id="id20">
       <rect class="BoundingBox" stroke="none" fill="none" x="11199" y="13299" width="304" height="304"/>
       <path fill="rgb(255,255,255)" stroke="none" d="M 11350,13300 C 11435,13300 11500,13365 11500,13450 11500,13535 11435,13600 11350,13600 11265,13600 11200,13535 11200,13450 11200,13365 11265,13300 11350,13300 Z M 11200,13300 L 11200,13300 Z M 11501,13601 L 11501,13601 Z"/>
       <path fill="none" stroke="rgb(255,255,255)" d="M 11350,13300 C 11435,13300 11500,13365 11500,13450 11500,13535 11435,13600 11350,13600 11265,13600 11200,13535 11200,13450 11200,13365 11265,13300 11350,13300 Z"/>
       <path fill="none" stroke="rgb(255,255,255)" d="M 11200,13300 L 11200,13300 Z"/>
       <path fill="none" stroke="rgb(255,255,255)" d="M 11501,13601 L 11501,13601 Z"/>
      </g>
     </g>
     <g class="com.sun.star.drawing.CustomShape">
      <g id="id21">
       <rect class="BoundingBox" stroke="none" fill="none" x="4399" y="18399" width="304" height="304"/>
       <path fill="rgb(255,255,255)" stroke="none" d="M 4550,18400 C 4635,18400 4700,18465 4700,18550 4700,18635 4635,18700 4550,18700 4465,18700 4400,18635 4400,18550 4400,18465 4465,18400 4550,18400 Z M 4400,18400 L 4400,18400 Z M 4701,18701 L 4701,18701 Z"/>
       <path fill="none" stroke="rgb(255,255,255)" d="M 4550,18400 C 4635,18400 4700,18465 4700,18550 4700,18635 4635,18700 4550,18700 4465,18700 4400,18635 4400,18550 4400,18465 4465,18400 4550,18400 Z"/>
       <path fill="none" stroke="rgb(255,255,255)" d="M 4400,18400 L 4400,18400 Z"/>
       <path fill="none" stroke="rgb(255,255,255)" d="M 4701,18701 L 4701,18701 Z"/>
      </g>
     </g>
     <g class="com.sun.star.drawing.CustomShape">
      <g id="id22">
       <rect class="BoundingBox" stroke="none" fill="none" x="3499" y="8499" width="304" height="304"/>
       <path fill="rgb(255,255,255)" stroke="none" d="M 3650,8500 C 3735,8500 3800,8565 3800,8650 3800,8735 3735,8800 3650,8800 3565,8800 3500,8735 3500,8650 3500,8565 3565,8500 3650,8500 Z M 3500,8500 L 3500,8500 Z M 3801,8801 L 3801,8801 Z"/>
       <path fill="none" stroke="rgb(255,255,255)" d="M 3650,8500 C 3735,8500 3800,8565 3800,8650 3800,8735 3735,8800 3650,8800 3565,8800 3500,8735 3500,8650 3500,8565 3565,8500 3650,8500 Z"/>
       <path fill="none" stroke="rgb(255,255,255)" d="M 3500,8500 L 3500,8500 Z"/>
       <path fill="none" stroke="rgb(255,255,255)" d="M 3801,8801 L 3801,8801 Z"/>
      </g>
     </g>
     <g class="com.sun.star.drawing.CustomShape">
      <g id="id23">
       <rect class="BoundingBox" stroke="none" fill="none" x="10299" y="4899" width="304" height="304"/>
       <path fill="rgb(255,255,255)" stroke="none" d="M 10450,4900 C 10535,4900 10600,4965 10600,5050 10600,5135 10535,5200 10450,5200 10365,5200 10300,5135 10300,5050 10300,4965 10365,4900 10450,4900 Z M 10300,4900 L 10300,4900 Z M 10601,5201 L 10601,5201 Z"/>
       <path fill="none" stroke="rgb(255,255,255)" d="M 10450,4900 C 10535,4900 10600,4965 10600,5050 10600,5135 10535,5200 10450,5200 10365,5200 10300,5135 10300,5050 10300,4965 10365,4900 10450,4900 Z"/>
       <path fill="none" stroke="rgb(255,255,255)" d="M 10300,4900 L 10300,4900 Z"/>
       <path fill="none" stroke="rgb(255,255,255)" d="M 10601,5201 L 10601,5201 Z"/>
      </g>
     </g>
     <g class="com.sun.star.drawing.CustomShape">
      <g id="id24">
       <rect class="BoundingBox" stroke="none" fill="none" x="16999" y="19699" width="304" height="304"/>
       <path fill="rgb(255,255,255)" stroke="none" d="M 17150,19700 C 17235,19700 17300,19765 17300,19850 17300,19935 17235,20000 17150,20000 17065,20000 17000,19935 17000,19850 17000,19765 17065,19700 17150,19700 Z M 17000,19700 L 17000,19700 Z M 17301,20001 L 17301,20001 Z"/>
       <path fill="none" stroke="rgb(255,255,255)" d="M 17150,19700 C 17235,19700 17300,19765 17300,19850 17300,19935 17235,20000 17150,20000 17065,20000 17000,19935 17000,19850 17000,19765 17065,19700 17150,19700 Z"/>
       <path fill="none" stroke="rgb(255,255,255)" d="M 17000,19700 L 17000,19700 Z"/>
       <path fill="none" stroke="rgb(255,255,255)" d="M 17301,20001 L 17301,20001 Z"/>
      </g>
     </g>
     <g class="com.sun.star.drawing.CustomShape">
      <g id="id25">
       <rect class="BoundingBox" stroke="none" fill="none" x="18399" y="8999" width="304" height="304"/>
       <path fill="rgb(255,255,255)" stroke="none" d="M 18550,9000 C 18635,9000 18700,9065 18700,9150 18700,9235 18635,9300 18550,9300 18465,9300 18400,9235 18400,9150 18400,9065 18465,9000 18550,9000 Z M 18400,9000 L 18400,9000 Z M 18701,9301 L 18701,9301 Z"/>
       <path fill="none" stroke="rgb(255,255,255)" d="M 18550,9000 C 18635,9000 18700,9065 18700,9150 18700,9235 18635,9300 18550,9300 18465,9300 18400,9235 18400,9150 18400,9065 18465,9000 18550,9000 Z"/>
       <path fill="none" stroke="rgb(255,255,255)" d="M 18400,9000 L 18400,9000 Z"/>
       <path fill="none" stroke="rgb(255,255,255)" d="M 18701,9301 L 18701,9301 Z"/>
      </g>
     </g>
    </g>
   </g>
  </g>
 </g>
</svg>